# xmcd
#
# Track frame offsets:
#	183
#	19333
#	40350
#	57488
#	76295
#	95505
#	97810
#	113723
#	127310
#	144290
#	163985
#	180878
#
# Disc length: 2663 seconds
#
# Revision: 1
# Processed by: cddbd v1.5.1PL2 Copyright (c) Steve Scherf et al.
# Submitted via: audiograbber 1.83.01
#
DISCID=9d0a650c
DTITLE=Juliette Et Les Indépendants - Juliette Et Les Indépendants
DYEAR=1989
DGENRE=Chanson
TTITLE0=L'Aprés Midi
TTITLE1=Je Suis Déja Parti
TTITLE2=La Radio K7
TTITLE3=Frederica
TTITLE4=Les Regrets
TTITLE5=Une Idée
TTITLE6=Je Suis À Tes Pieds
TTITLE7=Qui De Nous Deux
TTITLE8=These Boots Are Made For Walking
TTITLE9=Un Jour Anglais
TTITLE10=Pas Question
TTITLE11=La Lumière S'éteint
EXTD=
EXTT0=
EXTT1=
EXTT2=
EXTT3=
EXTT4=
EXTT5=
EXTT6=
EXTT7=
EXTT8=
EXTT9=
EXTT10=
EXTT11=
PLAYORDER=
